<?xml version="1.0" encoding="UTF-8"?>
<svg version="1.1" viewBox="0 0 2048 217" width="1280" height="1280" xmlns="http://www.w3.org/2000/svg">
<path transform="translate(992,8)" d="m0 0h9l12 4 10 9 5 8 2 3 5-9 5-5 8-6 9-3h11l10 4 8 7 7 13 3 13 1 18-2 30-2 17 17 10 5-1 11-8 19-10 21-7 20-4 8-1h36l27 4 24 6 32 11 30 13 58 28 31 14 26 10 24 7 19 4 8 1h27l20-4 17-7 16-10 14-12 7-10 5-11 2-9v-20l-4-16-8-16-11-12-8-7-16-8-8-2h-19l-12 4-11 8-7 9-4 10v16l4 11 5 7 9 6 5 2h14l10-4 7-5 5-8 1-3 6 1-1 7-6 9-8 7-8 4-6 2h-17l-12-5-9-7-7-10-4-9-2-9v-12l4-13 7-12 10-10 14-8 9-3 5-1h21l15 4 16 8 10 8 10 10 7 10 8 16 4 15 1 6v23l-2 10 285 1 2-6 5-4 5-2h7l6 3 6 7 1 8-2 7-4 5-6 3h-9l-7-4-4-6v-2h-290l-2 6-7 10-9 10-14 11-13 8-17 8-14 4-10 2-10 1h-18l-18-2-22-5-26-8-27-11-28-13-42-21-28-13-25-11-36-12-22-5-15-2-20-1-18 1-22 4-21 7-19 10-2 2 16 8 23 11 34 14 36 13 32 10 42 11 35 8-1 5-16-2-39-8-32-8-30-9-30-10-28-11-23-10-28-13-4 1-11 11-12 17-9 15-14 27-6-2 2-10 12-51 5-25-1-4-15-9-13-11-9-9-8-13-3-6-7 14-11 13-14 11-16 10 4 23 10 43 5 19v2l-6 2-13-25-11-18-10-14-12-13-6 2-27 13-36 15-34 12-25 8-37 10-42 9-17 3h-6l-1-4 9-3 31-7 31-8 33-10 34-12 30-12 33-15 18-9 1-2-5-2-14-8-15-6-25-6-8-1h-38l-24 4-26 7-27 10-27 12-33 16-32 16-33 15-29 11-25 7-21 4-12 1h-17l-21-3-21-7-15-8-14-10-12-11-7-8-5-8v-2l-314 1-4 6-5 4-3 1h-8l-6-3-5-6-1-2v-10l3-6 6-5 3-1h8l7 4 4 5v3h310l-3-11-1-9v-11l2-14 5-16 7-14 11-14 11-10 13-8 13-5 10-2h21l14 4 12 7 10 9 7 11 4 9 1 4v19l-4 11-6 10-8 8-12 6-3 1h-17l-11-4-8-6-7-8-4-9v-2l6-1 6 10 7 6 10 4h14l8-3 9-8 6-12 1-5v-12l-4-11-6-8-9-8-12-5-4-1h-18l-13 4-10 5-11 9-8 9-8 14-4 13-2 12v10l2 12 5 12 8 11 11 10 15 10 15 7 14 4 12 2h26l20-3 26-7 32-12 28-13 58-28 30-13 28-10 26-7 22-4 10-1h35l21 3 21 6 18 8 15 9 8 7 6-2 12-7h2l-3-19-1-10v-36l4-16 7-12 9-7zm3 12-8 3-6 7-4 10-2 11v25l2 22 1 5 4-1 13-9 12-11 8-11 4-10 1-5v-13l-4-11-7-8-10-4zm64 1-8 3-7 7-4 9-1 4v12l3 11 6 11 10 11 13 10 8 5h2l2-13 1-12v-29l-4-16-6-8-5-4-3-1zm-92 102-10 6 6 8 10 13 4 7 1-4-6-22-2-8zm122 0-7 28-2 10 4-5 9-13 9-10v-4l-11-6z" fill="#151C1C"/>
<path transform="translate(52,117)" d="m0 0h9l9 3 8 7 4 7 1 4v12l-5 10-8 7-8 3h-11l-9-4-7-6-4-8-1-4v-9l4-10 5-6 9-5z" fill="#111818"/>
<path transform="translate(1974,117)" d="m0 0h9l9 3 9 8 4 9v13l-5 10-8 7-8 3h-11l-9-4-6-5-5-9-1-4v-9l4-10 5-6 9-5z" fill="#121919"/>
<path transform="translate(2016,133)" d="m0 0h8l6 5 1 9-3 5-7 3-6-1-5-5-1-2v-7l3-5z" fill="#151C1C"/>
<path transform="translate(11,133)" d="m0 0h9l5 4 1 2v9l-4 5-5 2-6-1-5-4-1-2v-9l4-5z" fill="#131A1A"/>
</svg>
