<svg xmlns="http://www.w3.org/2000/svg" xmlns:xlink="http://www.w3.org/1999/xlink" version="1.1" x="0px" y="0px" viewBox="0 0 100 125" enable-background="new 0 0 100 100" xml:space="preserve"  fill="#D14031"><g><polygon points="52.587,33.751 55.63,42.741 65.179,25.708 94.859,13.319 69.566,33.708 49.984,67.26 30.434,33.708 5.141,13.319    34.821,25.708 44.371,42.741 46.876,30.208 50,28.676 56.328,32.246  "/><g><polygon points="31.355,42.87 19.591,35.214 7.763,19.586 27.297,35.854   "/><polygon points="38.813,55.672 21.096,39.257 33.691,46.908   "/><polygon points="68.646,42.87 80.409,35.214 92.236,19.586 72.703,35.854   "/><polygon points="61.188,55.672 78.904,39.257 66.31,46.908   "/></g><g><polygon points="43.354,84.809 39.08,78.615 46.838,68.293   "/><polygon points="56.388,84.809 60.662,78.615 52.903,68.293   "/></g><polygon points="49.984,71.453 46.838,86.682 52.903,86.682  "/></g></svg>